<svg id="27ed702f-1a69-4cda-8cb4-c87d9eb7b96e" data-name="Layer 1" xmlns="http://www.w3.org/2000/svg" viewBox="0 0 68.26 68.27"><title>new_age_icon</title><path d="M340.74,398.53c-.6,3.38-1,6.81-2.35,10-5.39,12.74-14.88,20.23-28.66,21.7-18.61,2-35.28-11.91-37.09-30.55a34.1,34.1,0,0,1,30.68-37.26c.52-.05,1-.18,1.54-.27h3.61c.38.08.77.2,1.16.25,14.16,1.75,23.79,9.33,29.06,22.54,1.18,3,1.47,6.13,2.05,9.23Zm-1.83-2.13a32.38,32.38,0,1,0-32.46,32.32A32.41,32.41,0,0,0,338.91,396.4Z" transform="translate(-272.47 -362.17)" style="fill:#197bbe"/><path d="M284.7,390.87a36.08,36.08,0,0,1,.57-8c1-4.6,2.87-5.77,7.54-5.27a8.77,8.77,0,0,1,6.15,3.76c3.86,4.94,6.37,10.64,9.19,16.18,2.43,4.79,4.73,9.65,7.87,14a21.15,21.15,0,0,0,3.32,3.63c1.18,1,2,.71,2.64-.5a15.56,15.56,0,0,0,1.62-7.57c.2-9.29-1.4-18.37-3.14-27.44-.09-.51-.72-1.49.12-1.54,1.13-.07,3-.89,3.36.82,2.05,10.63,4.33,21.25,3,32.2a11.24,11.24,0,0,1-.77,2.64,4.17,4.17,0,0,1-3.51,2.66c-4.51.87-7.64-.89-10.18-4.46-4.24-6-7.13-12.71-10.48-19.19a68.34,68.34,0,0,0-6.73-11.36,17.75,17.75,0,0,0-2.06-2.19c-1.62-1.44-2.2-1.32-3.22.64a16.07,16.07,0,0,0-1.5,6.88c-.37,8.93,1.08,17.67,2.73,26.39a4.39,4.39,0,0,1,.15,1.43c-.19,1.17-1,1.58-2.13,1.71s-1.19-.61-1.35-1.37A138.94,138.94,0,0,1,284.7,390.87Z" transform="translate(-272.47 -362.17)" style="fill:#197bbe"/></svg>